<?xml version="1.0" encoding="UTF-8" standalone="no"?>
<!-- Created with Inkscape (http://www.inkscape.org/) -->

<svg
   xmlns:osb="http://www.openswatchbook.org/uri/2009/osb"
   xmlns:dc="http://purl.org/dc/elements/1.1/"
   xmlns:cc="http://creativecommons.org/ns#"
   xmlns:rdf="http://www.w3.org/1999/02/22-rdf-syntax-ns#"
   xmlns:svg="http://www.w3.org/2000/svg"
   xmlns="http://www.w3.org/2000/svg"
   xmlns:sodipodi="http://sodipodi.sourceforge.net/DTD/sodipodi-0.dtd"
   xmlns:inkscape="http://www.inkscape.org/namespaces/inkscape"
   id="svg3355"
   version="1.1"
   inkscape:version="0.91 r13725"
   xml:space="preserve"
   width="800"
   height="1024"
   viewBox="0 0 800 1024"
   sodipodi:docname="logo.svg"><metadata
     id="metadata3361"><rdf:RDF><cc:Work
         rdf:about=""><dc:format>image/svg+xml</dc:format><dc:type
           rdf:resource="http://purl.org/dc/dcmitype/StillImage" /><dc:title></dc:title></cc:Work></rdf:RDF></metadata><defs
     id="defs3359"><linearGradient
       id="linearGradient4321"
       osb:paint="solid"><stop
         style="stop-color:#ff0000;stop-opacity:1;"
         offset="0"
         id="stop4323" /></linearGradient></defs><sodipodi:namedview
     pagecolor="#ffffff"
     bordercolor="#666666"
     borderopacity="1"
     objecttolerance="10"
     gridtolerance="10"
     guidetolerance="10"
     inkscape:pageopacity="0"
     inkscape:pageshadow="2"
     inkscape:window-width="1855"
     inkscape:window-height="1056"
     id="namedview3357"
     showgrid="false"
     inkscape:snap-global="true"
     units="mm"
     inkscape:snap-grids="false"
     inkscape:zoom="2"
     inkscape:cx="235.26321"
     inkscape:cy="303.24133"
     inkscape:window-x="65"
     inkscape:window-y="24"
     inkscape:window-maximized="1"
     inkscape:current-layer="g3365" /><g
     id="g3363"
     inkscape:groupmode="layer"
     inkscape:label="ink_ext_XXXXXX"
     transform="matrix(1.25,0,0,-1.25,0,1024)"><g
       id="g3365"
       transform="matrix(0.1,0,0,0.1,17.627855,8.8139285)"><path
         style="fill:none;fill-rule:evenodd;stroke:#d40000;stroke-width:52.14400101;stroke-linecap:butt;stroke-linejoin:miter;stroke-miterlimit:15.30000019;stroke-dasharray:5.2144, 5.2144;stroke-dashoffset:0;stroke-opacity:1"
         d="m 175.07955,2663.1324 c -29.9774,59.8683 -145.82131,44.2958 -126.19295,-33.0886 3.20092,-12.6196 10.00456,-26.883 21.37086,-42.731 15.79815,-22.0275 59.0625,-73.0399 111.00996,-122.448 12.5699,-11.9554 76.28609,-77.2495 46.16636,-121.1354 -10.60503,-15.4521 -32.84305,-28.2502 -73.04253,-35.1316 -160.27609,-27.4363 -222.49474,50.4518 -222.49474,50.4518"
         id="path4319"
         inkscape:connector-curvature="0"
         sodipodi:nodetypes="csssssc"
         inkscape:export-xdpi="90"
         inkscape:export-ydpi="90" /><text
         xml:space="preserve"
         style="font-style:normal;font-variant:normal;font-weight:normal;font-stretch:normal;font-size:320px;line-height:125%;font-family:TakaoPGothic;-inkscape-font-specification:TakaoPGothic;letter-spacing:0px;word-spacing:0px;fill:#d40000;fill-opacity:1;stroke:none;stroke-width:1px;stroke-linecap:butt;stroke-linejoin:miter;stroke-opacity:1"
         x="290.73657"
         y="-2276.8557"
         id="text4337"
         sodipodi:linespacing="125%"
         transform="scale(1,-1)"
         inkscape:export-xdpi="90"
         inkscape:export-ydpi="90"><tspan
           sodipodi:role="line"
           id="tspan4339"
           x="290.73657"
           y="-2276.8557"
           style="font-size:720px;fill:#d40000">en</tspan></text>
<text
         xml:space="preserve"
         style="font-style:normal;font-weight:normal;font-size:320px;line-height:125%;font-family:sans-serif;letter-spacing:0px;word-spacing:0px;fill:#000000;fill-opacity:1;stroke:none;stroke-width:1px;stroke-linecap:butt;stroke-linejoin:miter;stroke-opacity:1"
         x="233.8434"
         y="-1822.4633"
         id="text4341"
         sodipodi:linespacing="125%"
         transform="scale(1,-1)"><tspan
           sodipodi:role="line"
           id="tspan4343"
           x="233.8434"
           y="-1822.4633" /></text>
<g
         id="g4681"
         transform="matrix(0.57756784,0,0,0.55803225,-356.07375,1625.6773)"
         inkscape:export-xdpi="90"
         inkscape:export-ydpi="90"><path
           inkscape:connector-curvature="0"
           id="path3367"
           style="fill:#ffffff;fill-opacity:1;fill-rule:nonzero;stroke:#ffffff;stroke-opacity:0"
           d="m 1051.516,2320.968 c 0.148,-47.18 -8.86,-95.164 -28.032,-141.468 C 984.57,2085.5544 911.156,2016.3418 824,1980.484 c 94.234,0 188.554,35.6242 260.46,107.5218 71.9,71.9 107.75,166.2282 107.54,260.4622 -47.804,0.11 -95.578,-9.07 -140.484,-27.5 z" /><path
           inkscape:connector-curvature="0"
           id="path3369"
           style="fill:#b3d8f4;fill-opacity:1;fill-rule:nonzero;stroke:none"
           d="m 624.5156,2179.5 c -19.1718,46.304 -28.1796,94.288 -28.0398,141.468 -44.8976,18.43 -92.6718,27.61 -140.4758,27.5 -0.2102,-94.234 35.6398,-188.5622 107.5398,-260.4622 C 635.4382,2016.1082 729.758,1980.484 823.984,1980.4996 736.828,2016.366 663.43,2085.5544 624.5156,2179.5 Z" /><path
           sodipodi:nodetypes="ccsccscc"
           inkscape:connector-curvature="0"
           id="path3371"
           style="fill:#ffffff;fill-opacity:1;fill-rule:nonzero;stroke:none"
           d="m 1023.484,2179.5 c 19.172,46.304 28.18,94.288 28.032,141.468 -0.01,2.8207 -0.049,5.6386 -0.1225,8.4532 -1.1894,45.5956 -10.9162,90.3134 -28.2295,131.8588 -44.21,-18.188 -84.828,-44.946 -119.258,-79.18 18.188,-43.508 28.226,-91.28 28.226,-141.414 0,-101.6942 -41.35,-193.7176 -108.132,-260.202 87.156,35.8578 160.57,105.0704 199.484,199.016 z" /><path
           inkscape:connector-curvature="0"
           id="path3373"
           style="fill:#d1e7f8;fill-opacity:1;fill-rule:nonzero;stroke:none"
           d="m 744.094,2382.1 c -34.43,34.234 -75.054,60.992 -119.258,79.18 -18.382,-44.11 -28.2118,-91.796 -28.3602,-140.312 -0.1398,-47.18 8.868,-95.164 28.0398,-141.468 38.9144,-93.9456 112.3124,-163.1418 199.4684,-199.0004 -66.774,66.4766 -108.116,158.5062 -108.116,260.1864 0,50.134 10.038,97.906 28.226,141.414 z" /><path
           inkscape:connector-curvature="0"
           id="path3379"
           style="fill:#ff5555;fill-opacity:1;fill-rule:nonzero;stroke:none"
           d="m 576.64505,2393.5362 c 0,-17.672 -14.328,-31.992 -31.992,-31.992 -17.672,0 -32,14.32 -32,31.992 0,17.672 14.328,31.992 32,31.992 17.664,0 31.992,-14.32 31.992,-31.992 z" /><path
           sodipodi:nodetypes="cscsscc"
           inkscape:connector-curvature="0"
           id="path3381"
           style="fill:#ffffff;fill-opacity:1;fill-rule:nonzero;stroke:none"
           d="m 824,1980.4918 c 66.782,66.4766 108.124,158.4922 108.124,260.1862 0,50.134 -10.03,97.906 -28.218,141.43 -4.51751,10.821 -9.53969,21.3789 -15.03633,31.6446 -0.33777,0.6308 -0.67733,1.2605 -1.01867,1.8892 -17.10016,31.4912 -38.6785,60.1958 -63.851,85.2642 z" /><path
           inkscape:connector-curvature="0"
           id="path3383"
           style="fill:#ffffff;fill-opacity:1;fill-rule:nonzero;stroke:none"
           d="m 744.094,2382.108 c -18.188,-43.524 -28.218,-91.296 -28.218,-141.43 0,-101.6784 41.342,-193.694 108.124,-260.1862 l 0,520.4142 c -33.86,-33.712 -61.204,-74 -79.906,-118.798 z" /><path
           inkscape:connector-curvature="0"
           id="path4187"
           d="m 843.8536,1988.5501 c 121.4175,59.0726 201.483,179.8386 207.5905,313.117 0.7196,15.7037 1.2525,18.9643 3.2761,20.0473 1.3292,0.7113 11.2125,4.2023 21.9629,7.7578 30.3545,10.0389 62.7025,15.85 101.9658,18.3174 l 13.2631,0.8335 -0.9556,-17.8762 c -7.2356,-135.3468 -83.307,-251.5683 -203.9646,-311.6164 -43.0148,-21.4073 -94.2749,-34.9572 -138.9075,-36.7182 l -18.3329,-0.7234 14.1022,6.8612 z"
           style="fill:#aa0000;stroke:#ffffff;stroke-opacity:0" /><path
           sodipodi:nodetypes="ccssssssssssccc"
           inkscape:connector-curvature="0"
           id="path4189"
           d="m 824.8816,2240.5399 -0.066,258.0055 5.7873,-5.5746 c 11.53512,-11.1112 25.21791,-28.3663 37.75913,-47.1007 6.69175,-9.9963 13.05845,-20.4138 18.60039,-30.5437 0.40721,-0.7444 0.80997,-1.4872 1.20808,-2.2281 1.22697,-2.2836 2.40971,-4.5497 3.5425,-6.7902 2.4064,-4.7595 4.69443,-9.4954 6.86618,-14.2166 22.26444,-48.4002 32.30883,-95.2477 32.41242,-150.075 0.084,-44.4487 -5.0368,-76.5841 -18.8766,-118.4592 -7.3972,-22.3818 -24.3706,-58.6624 -35.9566,-76.8575 -10.5486,-16.5657 -28.9359,-40.5286 -40.579,-52.8835 l -10.6317,-11.2819 -0.066,258.0055 z"
           style="fill:#aa0000;stroke:#ffffff;stroke-opacity:0" /><path
           sodipodi:nodetypes="ssssscsssssssssccs"
           inkscape:connector-curvature="0"
           id="path4193"
           d="m 829.8126,1986.3285 c 1.5176,1.7874 6.0675,6.9114 10.111,11.3866 12.4525,13.7821 33.2716,42.4749 42.4339,58.4822 36.641,64.0154 53.4061,135.9469 48.516,208.1598 -2.6322,38.8693 -10.3733,75.6112 -22.0594,104.701 l -5.0501,12.571 8.121,7.4992 c 13.6162,12.5737 34.7261,29.148 50.0147,39.2687 14.2864,9.4572 55.9986,31.4998 59.6086,31.4998 2.1087,0 1.8952,0.4816 9.3617,-21.1235 7.0471,-20.3918 11.6282,-38.4169 15.4433,-60.767 1.9711,-11.5473 3.3149,-30.2848 3.8125,-48.9048 0.01,-0.2417 0.013,-0.4834 0.019,-0.725 0.4354,-17.0455 0.159,-33.9131 -0.9973,-44.993 -11.5331,-110.5087 -71.3783,-209.174 -163.692,-269.8753 -15.5862,-10.2488 -49.8963,-28.8514 -54.9377,-29.7867 l -3.4644,-0.6428 z"
           style="fill:#d40000;stroke:#ffffff;stroke-opacity:0" /><path
           inkscape:connector-curvature="0"
           id="path4195"
           d="m 812.3383,1993.9279 c -63.801,68.1812 -99.5592,165.4819 -95.5783,260.0755 3.7608,89.364 36.4687,168.7663 97.0474,235.5937 5.1921,5.7277 9.7947,10.0594 10.2279,9.6262 0.4333,-0.4333 0.6275,-117.1326 0.4315,-259.3318 l -0.3564,-258.544 -11.7721,12.5804 z"
           style="fill:#d40000;stroke:none;stroke-opacity:1" /><path
           inkscape:connector-curvature="0"
           id="path4197"
           d="m 1093.0755,2363.2607 c -17.6568,9.224 -22.2995,32.9695 -9.3336,47.7369 12.6351,14.3905 34.5761,14.3905 47.2112,0 5.7372,-6.5344 7.8625,-13.5728 7.135,-23.6296 -0.8041,-11.1166 -6.1209,-18.8825 -16.5474,-24.1697 -10.225,-5.185 -18.4552,-5.1669 -28.4652,0.062 z"
           style="fill:#aa0000" /><path
           inkscape:connector-curvature="0"
           id="path4199"
           d="m 916.77131,2445.0227 c -5.3946,1.9141 -13.1857,8.5334 -16.3011,13.8494 -7.0725,12.0683 -5.7787,26.1404 3.3324,36.2459 13.3374,14.7932 34.3844,14.6627 47.1855,-0.2925 17.3334,-20.2501 2.7919,-51.0292 -23.9364,-50.6647 -4.4908,0.061 -9.1169,0.4491 -10.2804,0.8619 z"
           style="fill:#aa0000" /><path
           sodipodi:nodetypes="csssscssssscsccc"
           inkscape:connector-curvature="0"
           id="path4201"
           d="m 808.5979,1986.6243 c -40.392,19.1258 -74.65443,43.418 -106.4722,75.4893 -63.2696,63.7738 -114.60283,165.0798 -105.4657,238.7888 3.61406,29.1546 2.0591,68.3794 8.9867,99.401 3.6204,16.2121 12.3392,44.3519 17.0129,54.909 l 2.6086,5.8923 12.6921,-5.896 c 27.3148,-12.6891 52.5286,-27.9656 73.3319,-44.4304 15.0866,-11.9403 31.7301,-27.1404 31.7301,-28.9782 0,-0.9051 -1.951,-6.7079 -4.3355,-12.8952 -9.1866,-23.837 -16.702,-54.9198 -20.294,-83.9342 -2.7623,-22.3116 -2.7966,-64.3649 -0.072,-87.66 9.024,-77.1439 43.4354,-151.1785 96.3298,-207.2493 5.0028,-5.3033 8.5432,-9.5983 7.8675,-9.5446 -0.6756,0.054 -6.9399,2.8022 -13.9205,6.1075 z"
           style="fill:#ff8080" /><path
           sodipodi:nodetypes="ssscsscsssssscs"
           inkscape:connector-curvature="0"
           id="path4203"
           d="m 804.3672,1981.3709 c -15.6366,0.9833 -36.11832,3.8981 -52.3991,6.7933 -171.96461,30.5803 -286.3984,158.2255 -294.7464,340.3799 l -0.9279,20.2469 15.386,-0.9403 c 43.1552,-2.6373 89.2362,-12.2739 118.332,-24.7458 l 6.3467,-2.7205 0,-13.842 c 0,-7.613 0.97447,-21.7555 2.1655,-31.4277 6.39117,-51.9018 23.77441,-101.0859 50.17475,-144.7677 0.46386,-0.7675 0.93051,-1.5333 1.39993,-2.2974 0.30864,-0.5024 0.61848,-1.004 0.92952,-1.5049 35.68972,-57.4758 87.12283,-105.1408 149.6991,-136.5092 13.36018,-6.6972 17.873,-9.5263 14.9218,-9.3544 -2.3269,0.1355 -7.4037,0.4459 -11.2819,0.6898 z"
           style="fill:#ffffff" /><path
           inkscape:connector-curvature="0"
           id="path4209"
           d="m 714.85764,2450.6641 c -14.6615,6.3506 -22.1905,22.4572 -17.707,37.8798 6.9941,24.0589 37.3257,30.5455 54.0046,11.5493 8.86,-10.0911 9.8073,-25.0373 2.351,-37.0975 -7.6932,-12.4435 -25.3695,-18.0834 -38.6486,-12.3316 z"
           style="fill:#ffd5d5" /><path
           inkscape:connector-curvature="0"
           id="path4213"
           d="m 804.2649,1989.3765 c -47.8145,23.3074 -94.9757,60.9522 -127.0983,101.4516 -4.4346,5.591 -8.5655,10.3771 -9.1798,10.6356 -0.6142,0.2586 -1.1168,1.2169 -1.1168,2.1298 0,0.9128 -1.5865,3.3706 -3.5256,5.4618 -1.9391,2.0912 -3.5256,4.3448 -3.5256,5.008 0,0.6633 -1.1105,2.4551 -2.4679,3.9819 -1.3573,1.5268 -3.6893,4.9782 -5.1821,7.6696 -1.4928,2.6915 -3.0794,5.2109 -3.5256,5.5987 -1.088,0.9456 -3.8965,6.2258 -13.1265,24.679 -28.2662,56.5112 -41.8747,121.7133 -37.7756,180.994 1.9463,28.1482 4.7245,47.2242 10.0728,69.1636 4.0456,16.5957 15.4078,51.4651 17.4283,53.4856 1.5429,1.5429 45.6083,-21.5457 62.4515,-32.7223 16.6742,-11.0643 32.3281,-23.392 46.3216,-36.4789 l 8.6796,-8.1174 -7.4954,-22.2025 c -8.1332,-24.092 -13.4258,-47.0276 -16.811,-72.8515 -2.8835,-21.9964 -2.8797,-71.3113 0.01,-93.4747 9.3752,-71.9761 42.365,-144.7871 89.0074,-196.4466 15.1598,-16.7904 15.1286,-16.8696 -3.1382,-7.9653 l 0,0 z"
           style="fill:#ff8080" /><path
           inkscape:connector-curvature="0"
           id="path4215"
           d="m 783.9189,1983.9385 c -87.0753,10.6045 -158.4244,44.8631 -218.6904,105.0054 -29.6819,29.6208 -48.251,54.6899 -66.3639,89.5939 -25.7519,49.6244 -37.7963,94.8769 -41.3922,155.5162 l -0.8584,14.4749 7.4697,-0.7027 c 4.1083,-0.3865 15.0849,-1.397 24.3924,-2.2456 32.654,-2.9773 71.59,-11.5056 96.6497,-21.1696 l 11.2327,-4.3319 0,-16.0428 c 0,-70.4638 31.4639,-153.8928 81.3609,-215.7347 15.4635,-19.1654 45.6388,-48.2534 65.3029,-62.9501 15.8122,-11.8177 37.7081,-25.4657 60.1263,-37.4774 l 11.0902,-5.9422 -7.7562,0.1016 c -4.2659,0.056 -14.4196,0.9132 -22.5637,1.905 l 0,-10e-5 z"
           style="fill:#ff5555" /><path
           transform="matrix(8,0,0,-8,-176.27855,3151.8607)"
           inkscape:connector-curvature="0"
           id="path4311"
           d="m 111.70154,87.712234 c -1.04479,-0.373367 -1.68951,-0.940742 -2.17418,-1.913351 -0.75464,-1.514378 -0.55014,-3.181111 0.53812,-4.385686 0.8239,-0.911955 1.87241,-1.300482 3.24219,-1.201401 2.03437,0.147154 3.4515,1.69826 3.44149,3.766847 -0.009,1.849475 -1.00592,3.184173 -2.76967,3.707951 -1.08542,0.322335 -1.43665,0.326288 -2.27795,0.02564 z"
           style="fill:#ffaaaa" /><path
           transform="matrix(8,0,0,-8,-176.27855,3151.8607)"
           inkscape:connector-curvature="0"
           id="path4313"
           d="m 135.71932,87.697209 c -2.93559,-2.241493 -1.42334,-6.812158 2.25388,-6.812158 1.19221,0 2.13921,0.438345 2.87471,1.330641 1.19958,1.455298 1.20164,3.420511 0.005,4.783401 -0.83596,0.952106 -1.68727,1.310579 -3.11241,1.310579 -1.11864,0 -1.28513,-0.05045 -2.02118,-0.612463 z"
           style="fill:#d40000" /></g></g></g></svg>